<?xml version="1.0" standalone="no"?><!DOCTYPE svg PUBLIC "-//W3C//DTD SVG 1.1//EN" "http://www.w3.org/Graphics/SVG/1.1/DTD/svg11.dtd"><svg t="1604652961608" class="icon" viewBox="0 0 1024 1024" version="1.1" xmlns="http://www.w3.org/2000/svg" p-id="7015" xmlns:xlink="http://www.w3.org/1999/xlink" width="200" height="200"><defs><style type="text/css"></style></defs><path d="M682.633463 597.66537L512 810.633463 341.366537 597.66537A341.266926 341.266926 0 0 0 0 938.633463v42.733074a42.633463 42.633463 0 0 0 42.633463 42.633463h597.66537v-42.633463h-597.66537v-42.733074A298.832685 298.832685 0 0 1 318.754864 640.796887l193.245136 246.835798 192.946304-246.835798a298.832685 298.832685 0 0 1 276.420233 297.836576v42.733074H896.498054v42.633463h85.366537a42.633463 42.633463 0 0 0 42.633463-42.633463v-42.733074A341.266926 341.266926 0 0 0 682.633463 597.66537z" fill="#00528F" p-id="7016"></path><path d="M725.366537 981.366537h85.366537v42.633463h-85.366537zM512 597.66537c141.34786 0 256-176.709728 256-341.66537a287.975097 287.975097 0 0 0-16.635019-98.315953 169.338521 169.338521 0 0 0 16.635019-72.31751V0H426.633463A170.633463 170.633463 0 0 0 256 170.633463v85.366537C256 420.955642 370.65214 597.66537 512 597.66537zM298.832685 170.633463A128.199222 128.199222 0 0 1 426.633463 42.633463h298.832685v42.733074A128.199222 128.199222 0 0 1 597.66537 213.366537H298.832685z m298.832685 85.366537a169.338521 169.338521 0 0 0 122.322179-52.096498 256.796887 256.796887 0 0 1 5.677821 52.096498c0 150.711284-105.68716 298.832685-213.366537 298.832685S298.832685 406.711284 298.832685 256z" fill="#00528F" p-id="7017"></path></svg>