<?xml version="1.0" standalone="no"?><!DOCTYPE svg PUBLIC "-//W3C//DTD SVG 1.1//EN" "http://www.w3.org/Graphics/SVG/1.1/DTD/svg11.dtd"><svg t="1604657886744" class="icon" viewBox="0 0 1024 1024" version="1.1" xmlns="http://www.w3.org/2000/svg" p-id="13483" xmlns:xlink="http://www.w3.org/1999/xlink" width="200" height="200"><defs><style type="text/css"></style></defs><path d="M401.222 329.542H221.556c-15.825 0-27.927 12.102-27.927 27.927v70.75c0 15.825 12.102 27.926 27.927 27.926h178.735c15.825 0 27.927-12.101 27.927-27.927V357.47c0.931-14.894-12.102-27.927-26.996-27.927z m286.72-107.986h62.37v72.611h-62.37z" fill="#FCE16D" p-id="13484"></path><path d="M873.193 653.498L673.978 207.593c-11.17-24.204-38.167-37.237-63.302-29.79-30.72 8.379-46.545 41.892-35.374 70.75l4.654 10.24h-29.789c-13.032 0-23.272 10.24-23.272 23.272s10.24 23.273 23.272 23.273h25.135c7.447 0 14.894-3.723 18.618-10.24l52.13 129.397h-37.235c-12.102 0-23.273 8.378-26.997 20.48L536.204 605.09c-11.171 40.029-67.026 40.029-80.059 0.93L439.39 552.03c-6.516-19.549-24.204-32.582-44.684-32.582H227.142c-20.48 0-38.167 13.033-44.684 32.582l-33.513 106.124c-11.17 36.305 14.895 72.61 53.062 72.61h619.055c40.96 0.932 67.956-40.96 52.13-77.265z" fill="#FF5500" p-id="13485"></path><path d="M205.73 735.418a111.71 111.71 0 1 0 223.42 0 111.71 111.71 0 1 0-223.42 0zM576.232 735.418a111.71 111.71 0 1 0 223.419 0 111.71 111.71 0 1 0-223.418 0z" fill="#FCF9FC" p-id="13486"></path><path d="M221.556 471.04h178.735c23.273 0 41.89-18.618 41.89-41.89V358.4c0-23.273-18.617-41.89-41.89-41.89H221.556c-23.272 0-41.89 18.617-41.89 41.89v70.75c0 23.272 18.618 41.89 41.89 41.89z m-13.963-113.57c0-7.448 6.516-13.965 13.963-13.965h178.735c7.447 0 13.964 6.517 13.964 13.964v70.75c0 7.446-6.517 13.963-13.964 13.963H221.556c-7.447 0-13.963-6.517-13.963-13.964V357.47z" fill="#2C2C2E" p-id="13487"></path><path d="M885.295 647.913L734.487 308.13c16.757-0.931 30.72-15.826 30.72-32.582v-35.374c0-18.619-14.894-32.582-32.582-32.582h-43.752l-1.862-4.655c-13.964-30.72-47.476-46.545-80.058-37.236-18.618 5.585-33.513 17.687-41.891 34.443-7.447 13.964-9.31 30.72-5.586 45.615h-9.309c-20.48 0-37.236 16.756-37.236 37.236s16.756 37.237 37.236 37.237h39.098l37.237 91.229h-16.757c-18.618 0-35.374 12.102-40.029 30.72l-45.614 160.116c-3.724 14.895-15.826 19.55-26.066 20.48-10.24 0-22.341-4.654-26.996-19.549l-16.756-53.993c-8.379-25.134-31.651-41.89-57.717-41.89H229.004c-26.066 0-49.339 16.756-57.717 41.89L136.844 655.36c-6.517 21.41-2.793 44.684 10.24 62.37 11.17 14.895 27.927 25.135 45.614 27.928 4.655 65.164 59.578 117.295 125.673 117.295s120.087-51.2 125.673-116.364H563.2c4.655 65.164 59.578 116.364 125.673 116.364s119.156-53.062 124.742-117.295h8.378c23.272 0 45.614-12.102 58.647-31.65s13.964-44.684 4.655-66.095z m-153.6-411.462c2.792 0 4.654 1.862 4.654 4.654v35.375c0 2.793-1.862 4.655-4.654 4.655h-10.24l-19.55-43.753h29.79zM317.44 833.164c-53.993 0-97.745-43.753-97.745-97.746s43.752-97.745 97.745-97.745 97.745 43.752 97.745 97.745-43.752 97.746-97.745 97.746z m370.502 0c-53.993 0-97.746-43.753-97.746-97.746s43.753-97.745 97.746-97.745 96.814 43.752 96.814 97.745-43.752 97.746-96.814 97.746z m168.494-134.982c-7.447 12.102-20.48 18.618-35.374 18.618h-9.31c-8.377-61.44-61.44-107.985-124.741-107.985S571.578 656.29 562.269 716.8H441.251c-8.378-61.44-61.44-107.985-124.742-107.985-63.302 0-115.433 46.545-124.742 107.054-9.309-1.862-18.618-7.447-24.203-15.825-8.379-11.171-10.24-24.204-6.517-37.237l34.444-106.123c4.654-13.964 16.756-22.342 30.72-22.342h167.564c13.963 0 26.996 9.309 30.72 22.342l16.756 53.992c7.447 23.273 27.927 39.099 53.062 39.099h0.93c25.135 0 45.615-15.826 53.062-40.03l47.477-161.047c1.862-5.585 7.447-10.24 13.033-10.24h58.647l-59.578-147.083h-57.717c-4.654 0-9.309-3.724-9.309-9.31s3.724-9.309 9.31-9.309h50.268l-12.101-28.858c-3.724-10.24-3.724-22.342 1.861-31.65 4.655-10.24 13.964-17.688 25.135-20.48 18.618-5.586 39.098 3.723 46.545 22.341L860.16 659.084c5.585 13.032 4.655 27.927-3.724 39.098z" fill="#2C2C2E" p-id="13488"></path><path d="M694.458 664.67c-7.447 0-13.963 6.515-13.963 13.963s6.516 13.963 13.963 13.963c18.618 0 33.513 14.895 33.513 33.513 0 7.447 6.516 13.964 13.964 13.964s13.963-6.517 13.963-13.964c-0.93-34.444-27.927-61.44-61.44-61.44z m-370.502 0c-7.447 0-13.963 6.515-13.963 13.963s6.516 13.963 13.963 13.963c18.619 0 33.513 14.895 33.513 33.513 0 7.447 6.516 13.964 13.964 13.964s13.963-6.517 13.963-13.964c-0.93-34.444-27.927-61.44-61.44-61.44z" fill="#2C2C2E" p-id="13489"></path><path d="M716.8 462.662a13.964 13.964 0 1 0 27.927 0 13.964 13.964 0 1 0-27.927 0zM795.927 571.578l-33.512-73.542c-2.793-7.447-11.171-10.24-18.619-6.516-7.447 2.793-10.24 11.17-6.516 18.618l33.513 73.542c2.792 4.655 7.447 8.378 13.032 8.378 1.862 0 3.724 0 5.586-0.93 6.516-3.724 10.24-12.103 6.516-19.55z" fill="#FFA063" p-id="13490"></path></svg>