<?xml version="1.0" standalone="no"?><!DOCTYPE svg PUBLIC "-//W3C//DTD SVG 1.1//EN" "http://www.w3.org/Graphics/SVG/1.1/DTD/svg11.dtd"><svg t="1604665281123" class="icon" viewBox="0 0 1204 1024" version="1.1" xmlns="http://www.w3.org/2000/svg" p-id="14328" xmlns:xlink="http://www.w3.org/1999/xlink" width="235.15625" height="200"><defs><style type="text/css"></style></defs><path d="M683.008 0l503.988706 501.940706-108.001882 107.580235-503.988706-501.940706L683.008 0z m503.988706 501.940706l-503.988706 502.000941-108.001882-107.580235 503.988706-501.940706 108.001882 107.52z" fill="#4B73DC" p-id="14329"></path><path d="M632.109176 425.863529c42.164706 0 76.378353 34.093176 76.378353 76.077177 0 42.044235-34.213647 76.077176-76.378353 76.077176-42.164706 0-76.378353-34.032941-76.378352-76.077176 0-41.984 34.213647-76.016941 76.378352-76.016941z" fill="#6083DE" p-id="14330"></path><path d="M377.554824 425.863529c42.164706 0 76.378353 34.093176 76.378352 76.077177 0 42.044235-34.213647 76.077176-76.378352 76.077176C335.390118 578.017882 301.176471 543.924706 301.176471 501.940706c0-41.984 34.213647-76.016941 76.378353-76.016941z" fill="#8CA5E6" p-id="14331"></path><path d="M76.378353 425.863529c42.164706 0 76.378353 34.093176 76.378353 76.077177 0 42.044235-34.213647 76.077176-76.378353 76.077176C34.213647 578.017882 0 543.924706 0 501.940706c0-41.984 34.213647-76.016941 76.378353-76.016941z" fill="#B7C6EE" p-id="14332"></path></svg>