<?xml version="1.0" encoding="utf-8"?>
<svg version="1.1" xmlns:xlink="http://www.w3.org/1999/xlink" width="241px" height="170px" xmlns="http://www.w3.org/2000/svg">
  <g transform="matrix(1 0 0 1 -215 -76 )">
    <path d="M 215 76  L 456 76  L 456 246  L 215 246  L 215 76  " fill-rule="nonzero" fill="#cccccc" stroke="none" />
    <path d="M 227 88  L 444 88  L 444 234  L 227 234  L 227 88  " fill-rule="nonzero" fill="#ffffff" stroke="none" />
    <path d="M 353.07 127  C 345.93 127  340.32 121.39  340.32 114.25  C 340.32 107.11  345.93 101.5  353.07 101.5  C 360.21 101.5  365.82 107.11  365.82 114.25  C 365.82 121.39  360.21 127  353.07 127  " fill-rule="nonzero" fill="#cccccc" stroke="none" />
    <path d="M 232 230  L 232 154.65  L 284 120.4  L 356.8 172.016597510373  L 398.4 140.95  L 440 172.016597510373  L 440 230  L 232 230  " fill-rule="nonzero" fill="#169bd5" stroke="none" />
  </g>
</svg>